<svg id="Layer_1" data-name="Layer 1" xmlns="http://www.w3.org/2000/svg" viewBox="0 0 1057.58 1038.09"><defs><style>.cls-1{fill:#545353;}.cls-2{fill:#f0ca85;}.cls-3{fill:#e1f3b3;}.cls-4{fill:#9cc53d;}.cls-5{fill:#b6e345;}.cls-6{fill:#e9b04d;}.cls-7{fill:#ebbd6b;}.cls-8{fill:#a9d440;}.cls-9{fill:#e39724;}</style></defs><path class="cls-1" d="M29.53,1010.08V577.16c5-14.12,7.3-15.76,22.69-16.22a57.87,57.87,0,0,1,6.84-.08c8.23.73,12.46-3.21,14.81-10.94,8.53-28.09,17-56.21,25.64-84.25,1.73-5.61,3.07-11.38,7.32-15.81q8.27-8.64,19.63-4.91c12.13,5.7,15.78,14.11,11.49,28.12-7.46,24.31-14.93,48.62-22.24,73-4,13.16-3,14.73,11,14.74q101.26.09,202.51,0c14.49,0,15.6-1.84,12.34-16.31-4.82-21.38-16.24-38.92-30.89-54.68-2.66-2.87-5.26-5.81-8-8.56-18.42-18.28-23.88-40.58-23.42-66,.9-48.91.32-97.85.23-146.78,0-20-10.43-33.19-29.65-38-16.44-4.13-34.57,3.85-42.69,20.15-9.65,19.35-13.51,40.78-20.13,61.23-9.33,28.84-17.1,58.19-27,86.87-4.33,12.61-12.11,16.79-23.77,13.78-10.38-3.7-13.21-7.21-13.07-17.79.17-13.29,5.69-25.38,9.44-37.81,11.49-38.1,22.33-76.43,35.18-114.09,13.89-40.74,59-62.35,99-48,24.89,8.91,41.69,26.42,49.85,51.49,7.87,24.2,13.7,49,20.39,73.55a57.68,57.68,0,0,0,16.11,27.35c12.67,12.18,25.67,24.08,32.68,41,5.33,12.84,7.51,26.36,9.94,39.78,1.95,10.8,7.6,16.46,18,19.18,21.45,5.65,42.88,11.35,64.34,16.94,12.23,3.18,13.55,2.23,15.18-10,7.67-57.5,14.07-115.17,21.46-172.71,5.68-44.29,11.16-88.6,16.71-132.91,2.88-23,4.81-46.06,8.76-68.85,4.22-24.44,17.4-43.17,38.78-56.08,8.76-5.3,19-3.73,28.18-6.61h25.45c18.44,1.51,34.54,7.43,47.23,22a84.36,84.36,0,0,1,19.91,41.82c6.07,34.38,12,68.77,17.65,103.22,2.5,15.35,9.06,27.57,22,36.57,9.63,6.7,18.85,14,28.2,21.12C781.29,252,791.18,265,796.09,281.53c.46,1.56,1.15,3.07,1.53,4.64,4.3,17.69,14.12,29.23,32,36.08,28.65,11,48.75,32,60.38,60.71,5.38,13.28,15.54,21.07,28.26,26.85,23.41,10.63,47.79,19.68,67.1,37.63,25.54,23.74,44.48,51.07,46.78,87.29.62,9.76,1.11,19.51,1.1,29.3q-.1,217.38,0,434.77c0,2.61.13,5.23,0,7.84-.68,10.64-3.67,13.56-14.48,14.19-2.28.13-4.57,0-6.85,0q-481.14,0-962.28.06C40.68,1020.91,32.3,1020.91,29.53,1010.08Z"/><path class="cls-2" d="M115.85,926.5c-10.26,2.14-14.64,8.4-14.29,18.89.42,12.39-.13,24.82.19,37.22.15,5.74-1.38,8.29-7.63,8-9.44-.45-18.93-.31-28.39,0-4.88.14-7.49-1.22-6.84-6.55a42,42,0,0,0,0-4.89q0-186.09-.22-372.18c0-9.41,2.29-12,11.81-11.92,49,.5,97.91.21,146.87.25,24.58,0,33.84,9.21,33.86,33.55,0,28.4,0,56.81,0,85.21.05,18.06,6.87,25,24.76,25.07,30.35.11,60.7,0,91.06.06,22.4.07,32,9.81,32.11,32.36s-.07,45.05.06,67.58c.09,16,6.64,22.51,22.72,22.54,46.34.08,92.69,0,139,0,16,0,19.44,2.87,18.67,18.72-1.24,25.77,5.42,48.91,19.67,70.32,8.24,12.37,15.37,25.47,23.63,39.3-4.42.2-7.25.45-10.07.45q-177.72,0-355.42.22c-8.63,0-10.89-2.1-10.79-10.76.47-43.42.24-86.84.2-130.27,0-20.66-8.32-28.92-29.2-29q-44.06-.09-88.12,0c-19.64.07-27.79,8.42-27.91,28.15,0,6.53.35,13.08-.08,19.58-.73,10.82,3.69,17.53,14.41,19.83C122.16,896.89,122.08,918.38,115.85,926.5Z"/><path class="cls-3" d="M601.25,622c2.16,10.84,8.93,14.62,19.72,14.5,33.61-.37,67.22.28,100.82-.3,17.51-.3,31.79,5,43.43,18.2,5.95,6.75,12.81,12.7,19.41,19.15-3.77,3.5-7.16,2.27-10.19,2.28-25.78.12-51.56,0-77.33.11-3.9,0-7.93,0-11.65,1-7.3,1.92-10.63,7.31-10.23,14.68.37,7,4.14,11.69,11.1,13a63.16,63.16,0,0,0,11.69.65c45,0,90.06.18,135.08-.14,7.5,0,12.76,2.21,17.92,7.57,15.16,15.74,30.89,30.94,46.29,46.47,2.42,2.44,5.73,4.3,7,9.46H887.74q-34.26,0-68.52,0c-14.39,0-20.82,4.65-20.62,14.78.19,9.82,7,14.57,21.23,14.59,35.89,0,71.79.15,107.68-.13,6.42,0,10.9,2,15.34,6.5Q969.9,832,997.58,859a16.3,16.3,0,0,1,5.34,12.81c-.2,36.56-.33,73.12.08,109.67.08,7.44-2,9.22-9.27,9.14-34.26-.38-68.52-.28-102.78,0-5.2,0-8.25-1.43-10.92-6-11.5-19.71-23.42-39.19-35.17-58.76a68.22,68.22,0,0,1-9.64-34.45c-.09-4.9,0-9.8-.06-14.69-.33-28-16.39-44.21-44.64-44.34-41.43-.19-82.88-.32-124.31.15-9.06.1-12.56-1.66-12.08-11.59.87-18.23.41-36.54.2-54.82-.37-31.7-22.91-55.3-54.54-56.1-27.72-.71-55.47-.51-83.2-.09-7.91.13-9.9-2.48-9.7-10,.49-18.59.36-37.21.05-55.81-.1-6,1.9-8,7.86-7.79,10.1.38,20.23-.08,30.34.14s16-4.3,17.54-14.38C571.16,615.74,592.45,615.73,601.25,622Z"/><path class="cls-4" d="M870.82,585.57c-20.87-.21-18.29,2.28-18.5-18.07-.05-5.54,0-11.09,0-16.64-.22-16.92-7.74-24.57-24.54-24.61-33.92-.08-67.84-.28-101.76.16-7.9.11-11.45-2.09-13.44-10-6.28-25-13.4-49.74-20.19-74.58a78.64,78.64,0,0,1-2.66-21.28c.1-24.47.2-48.94-.08-73.41-.29-24.67-9.28-45.87-27.15-62.91-10.62-10.13-21.71-19.77-32.93-29.23a42.56,42.56,0,0,1-14.2-21.69q-19.83-71.15-39.94-142.2a22.6,22.6,0,0,1,.81-15.19A47.46,47.46,0,0,1,623.6,46.42,46.27,46.27,0,0,1,666,85c6.63,36.89,12.79,73.87,19.09,110.83,3.52,20.67,14.27,36.82,30.59,49.56.52.4,1.07.76,1.58,1.15,50,38.14,36.62,19.69,58.79,80.77q20.85,57.48,40.72,115.31C821.31,455.81,828,467.38,838.3,477c8.14,7.53,15.37,16.05,23.66,23.38,14.85,13.1,22,29.5,23.32,48.95a185.44,185.44,0,0,0,3.29,25.2c1.87,8.91-1.15,12.2-9.93,11.14A65.76,65.76,0,0,0,870.82,585.57Z"/><path class="cls-5" d="M126.46,445c3.94-12.75,5.9-19.74,9.84-32.49,12.27.14,16.64-5.26,20.38-17.48,13.81-45.2,27.43-90.46,41.33-135.63,7.06-23,24.44-35.76,46.1-34.77,20.87,1,41.21,20.35,40.61,41.84-1.46,51.84-.18,103.74-.62,155.61-.18,20.64,5.53,38.39,19.91,53.4,7.44,7.76,14.33,16.07,21.27,24.3,14.83,17.6,20.9,38.74,24.44,60.93.69,4.36-1.26,5.13-4.69,5.14-2,0-3.91,0-5.87,0H117.06c-12.41,0-12.44-.06-8.91-11.64q12.54-41.16,25.12-82.3C137.16,459.09,137.05,452.68,126.46,445Z"/><path class="cls-5" d="M675,586.54c-15.8-15.89-29.4-29.38-42.8-43.07-24.35-24.86-52.64-43.59-85.41-55.43-.31-.11-.61-.25-.91-.36-21.16-7.6-21.37-7.63-18.69-29.39q17.55-142.69,35.36-285.35c.35-2.81,1.22-5.55,2.35-10.58,7.9,27.91,15.38,53.51,22.34,79.25a66.1,66.1,0,0,0,21.52,34.16q15.65,13.31,30.91,27.08c13.82,12.47,20.82,28,20.73,46.78-.08,16.31.65,32.66-.14,48.93-1.27,25.76,2.45,50.62,10.15,75.14,5,15.85,8.9,32,13.29,48.06.94,3.41,2.44,6.6-1.45,9.62-6.22,4.86-7.36,11.91-7.28,19.38C675.11,561.68,675,572.61,675,586.54Z"/><path class="cls-4" d="M601.25,622l-38.57,0c-1.38-10.7-8.1-15-18.23-15.1-10.43-.08-20.87-.26-31.3,0-5.56.15-8.68-1.54-11.1-7-10.21-23.06-28.92-33.64-53.54-34.13q-29.34-.57-58.69.06c-6.9.16-10.25-2.06-11-8.93-4.24-40.25-24.07-72.47-52.11-100.34-9.64-9.59-13.58-20.86-13.27-34.41.5-21.42.14-42.85.14-66.85,21.31,21.29,44.9,37.71,47,69.11.3,4.53,1.47,9,2.33,13.49,4.24,22.09,17.19,35.67,39.11,41.35q62,16.05,123.75,32.95c30.09,8.3,56.39,23.72,78.83,45.43,15.83,15.32,31.25,31.07,46.85,46.62l-1,2.58c-9.58,0-19.16-.09-28.73,0C608.85,607.09,605.31,609.77,601.25,622Z"/><path class="cls-6" d="M849.38,990.49H806q-69.5,0-139,0c-8,0-18.62-9.24-19.15-17-.37-5.28,4-3.22,6.27-3.24,21.2-.2,42.41-.12,63.62-.13,18.92,0,37.85.12,56.77,0,21.14-.18,29.24-12.21,21-31.34-5.09-11.8-8-24.09-9.74-36.75-1.95-13.85-8.19-19.44-22.11-19.47-48-.1-95.92-.2-143.88.1-7.61.05-9.41-1.85-11.09-9.85-6-28.5-2.69-57.16-3.94-85.7-.79-17.82-11.49-27.63-30-27.68-45.35-.11-90.7,0-136,0-8.37,0-16.45-9.37-15.13-17.41.56-3.38,3.25-2.52,5.31-2.77,4.84-.56,9.95-.21,14.49-1.66,8.64-2.75,13.28-9.28,13.32-18.45.11-27.74.3-55.48-.06-83.22-.17-13.06-8.23-19.72-22.73-19.75q-70.47-.12-140.95,0c-10.69,0-17.16-6.73-17.18-17.54,0-4.55,3.32-3.22,5.49-3.25,11.42-.15,22.84-.08,34.26-.08q64.11,0,128.22,0c24.21,0,33.87,9.7,33.9,33.83,0,28.72-.05,57.44,0,86.16.05,17,6.71,23.81,23.7,23.89,30.67.14,61.34,0,92,.07,22.08.08,31.52,9.6,31.57,31.62,0,22.52-.07,45,0,67.56.08,16.42,6.83,23.22,23.21,23.25,46.33.07,92.66,0,139,0,15.73,0,18.93,2.7,18.38,18-.92,26,5.34,49.6,19.94,71.26C833.69,963,840.66,975.92,849.38,990.49Z"/><path class="cls-7" d="M1001.72,822.5c-21.64-21.83-41.79-42.24-62.05-62.55-24.42-24.48-49.16-48.64-73.26-73.44-7.42-7.64-15.3-12-25.86-10.6-8.87,1.15-15.38-2.07-21.41-8.68-9.88-10.83-21.17-20.4-30.9-31.36-18.66-21-41.58-30.42-69.55-29-14.28.72-14.32.11-14.33-14,0-9.79.22-19.58-.07-29.36-.16-5.74,1.65-8.07,7.78-8q51.85.38,103.72.08c5.58,0,7.46,1.92,7.28,7.36-.3,9.13-.18,18.27-.05,27.41.25,16.89,7.77,24.64,24.55,24.79,23.16.2,46.32.29,69.47-.08,7.47-.12,10.37,1.92,10.12,9.86-.55,17.27,0,34.58-.25,51.87-.16,9.73,2.77,17.62,10,24.4,10.71,10,20.68,20.85,31.31,31,4.37,4.17,6.8,8.61,5.94,14.63-2.41,16.78,3.46,30.23,17.08,39.93C1003.41,795.32,1004.43,807,1001.72,822.5Z"/><path class="cls-8" d="M816.85,354c19.08,7.85,32.3,19.49,38.9,36.43,10,25.83,27.75,42.7,53.15,52.63a279.07,279.07,0,0,1,29.25,13.6c41.27,22,63.6,56.46,64.42,103.2.95,54.46.22,108.94.22,164.71-15.29-15.1-29.74-29.35-44.16-43.63-2.89-2.86-2.3-6.64-2.31-10.18,0-19.9.07-39.81-.05-59.71-.1-17.6-7.15-25.37-24.95-25.12-9.74.14-13-2.9-13.6-12.45-.75-12.66-3.29-25.2-4.81-37.83-2.21-18.46-8.22-36.41-22.66-47.53-38.07-29.34-53.41-70.92-66.53-114.27C821.93,368,819.69,362.21,816.85,354Z"/><path class="cls-9" d="M115.85,926.5q.08-19.11.14-38.23c12.83-4.3,14.93-7.52,15.07-22.4.17-17.15-2.42-15.8,15.5-15.85,20.85-.06,41.69.14,62.53-.11,6.12-.07,8.6,1.61,8.56,8.25q-.37,62.05,0,124.11c0,6.38-1.93,8.43-8.33,8.34q-34.66-.48-69.36,0c-6.66.09-9.32-1.74-9-8.74.48-11.71.19-23.45.1-35.18C130.93,933.8,128.13,930.16,115.85,926.5Z"/><path class="cls-9" d="M354,709.8c-21.21,0-42.42-.3-63.62.16-7.89.17-10.16-2.65-9.93-10.21.47-15.32.37-30.68,0-46-.14-6.44,2.22-8.39,8.55-8.36q65.09.33,130.18,0c6.48,0,8.49,2.26,8.36,8.53-.31,15.66-.37,31.34,0,47,.17,6.85-2.22,9.1-9,9C397.06,709.6,375.53,709.8,354,709.8Z"/><path class="cls-9" d="M502.06,832.24c-21.49,0-43-.19-64.48.12-6.68.1-9.4-2-9.06-8.88.46-9.43.23-18.9.1-28.34-.06-4.53,1.76-6.38,6.36-6.38q66.93.12,133.86,0c5.24,0,6.77,2.25,6.69,7.06-.18,10.1-.22,20.2,0,30.3.12,5.24-2,6.46-7,6.39-22.14-.28-44.29-.12-66.44-.12Z"/><path class="cls-9" d="M685.33,911.9c20.56,0,41.13.47,61.67-.22,8.39-.29,12,2.51,12.46,10.5a22.27,22.27,0,0,0,.71,3.85c3.46,14.79,3.47,14.79-11.35,14.79-34.27,0-68.57-.91-102.78.43-14.81.58-22.77-4.53-28.52-17.34-5.34-11.89-5.78-12,7.11-12Q655,911.88,685.33,911.9Z"/></svg>